<?xml version="1.0" encoding="UTF-8" standalone="no"?>
<!-- Created with Inkscape (http://www.inkscape.org/) -->

<svg
   xmlns:dc="http://purl.org/dc/elements/1.1/"
   xmlns:cc="http://creativecommons.org/ns#"
   xmlns:rdf="http://www.w3.org/1999/02/22-rdf-syntax-ns#"
   xmlns:svg="http://www.w3.org/2000/svg"
   xmlns="http://www.w3.org/2000/svg"
   xmlns:sodipodi="http://sodipodi.sourceforge.net/DTD/sodipodi-0.dtd"
   xmlns:inkscape="http://www.inkscape.org/namespaces/inkscape"
   id="svg2"
   version="1.1"
   inkscape:version="0.91 r13725"
   xml:space="preserve"
   width="1300"
   height="800"
   viewBox="0 0 1300 800"
   sodipodi:docname="isp_uvm_fig1.svg"><metadata
     id="metadata8"><rdf:RDF><cc:Work
         rdf:about=""><dc:format>image/svg+xml</dc:format><dc:type
           rdf:resource="http://purl.org/dc/dcmitype/StillImage" /><dc:title></dc:title></cc:Work></rdf:RDF></metadata><defs
     id="defs6" /><sodipodi:namedview
     pagecolor="#ffffff"
     bordercolor="#666666"
     borderopacity="1"
     objecttolerance="10"
     gridtolerance="10"
     guidetolerance="10"
     inkscape:pageopacity="0"
     inkscape:pageshadow="2"
     inkscape:window-width="640"
     inkscape:window-height="480"
     id="namedview4"
     showgrid="false"
     inkscape:zoom="0.25257212"
     inkscape:cx="650"
     inkscape:cy="400"
     inkscape:window-x="0"
     inkscape:window-y="0"
     inkscape:window-maximized="0"
     inkscape:current-layer="g10" /><g
     id="g10"
     inkscape:groupmode="layer"
     inkscape:label="env"
     transform="matrix(1.25,0,0,-1.25,0,800)"><g
       id="g12"><g
         id="g14"
         transform="matrix(1,0,0,-1,0,640)"><path
           d="m 236.398,305.199 682.402,0 0,298.402 -682.402,0 0,-298.402 z"
           style="fill:none;stroke:#000000;stroke-width:1.60000002;stroke-linecap:butt;stroke-linejoin:miter;stroke-miterlimit:4;stroke-dasharray:4.8, 4.8;stroke-dashoffset:0;stroke-opacity:1"
           id="path16"
           inkscape:connector-curvature="0" /></g><g
         id="g18"
         transform="matrix(1,0,0,-1,0,640)"><path
           d="m 795.449,73.152 177.688,0 0,208.094 -177.688,0 0,-208.094 z"
           style="fill:none;stroke:#000000;stroke-width:1.50844097;stroke-linecap:butt;stroke-linejoin:miter;stroke-miterlimit:4;stroke-dasharray:4.525323, 4.525323;stroke-dashoffset:0;stroke-opacity:1"
           id="path20"
           inkscape:connector-curvature="0" /></g><g
         id="g22"
         transform="matrix(1,0,0,-1,0,640)"><path
           d="m 29.199,73.199 546.402,0 0,208 -546.402,0 0,-208 z"
           style="fill:none;stroke:#000000;stroke-width:1.60000002;stroke-linecap:butt;stroke-linejoin:miter;stroke-miterlimit:4;stroke-dasharray:4.8, 4.8;stroke-dashoffset:0;stroke-opacity:1"
           id="path24"
           inkscape:connector-curvature="0" /></g><g
         id="g26"
         transform="matrix(1,0,0,-1,0,640)"><path
           d="m 578.801,185.199 40,0 0,-12 28,20 -28,20 0,-12 -40,0 0,12 -28,-20 28,-20 0,12 z"
           style="fill:#ff8000;fill-opacity:1;fill-rule:nonzero;stroke:#000000;stroke-width:1.60000002;stroke-linecap:butt;stroke-linejoin:miter;stroke-miterlimit:10;stroke-dasharray:none;stroke-opacity:1"
           id="path28"
           inkscape:connector-curvature="0" /></g><g
         id="g30"
         transform="matrix(1,0,0,-1,0,640)"><path
           d="m 295.602,130 96,0 0,125.602 -96,0 0,-125.602 z"
           style="fill:#a9c4eb;fill-opacity:1;fill-rule:nonzero;stroke:#000000;stroke-width:1.60000002;stroke-linecap:butt;stroke-linejoin:miter;stroke-miterlimit:4;stroke-dasharray:none;stroke-opacity:1"
           id="path32"
           inkscape:connector-curvature="0" /></g><g
         id="g34"
         transform="matrix(1,0,0,-1,0,640)"><path
           d="m 455.602,130 96,0 0,125.602 -96,0 0,-125.602 z"
           style="fill:#a9c4eb;fill-opacity:1;fill-rule:nonzero;stroke:#000000;stroke-width:1.60000002;stroke-linecap:butt;stroke-linejoin:miter;stroke-miterlimit:4;stroke-dasharray:none;stroke-opacity:1"
           id="path36"
           inkscape:connector-curvature="0" /></g><g
         id="g38"
         transform="matrix(1,0,0,-1,0,640)"><path
           d="m 391.602,161.199 57.406,0"
           style="fill:none;stroke:#000000;stroke-width:1.60000002;stroke-linecap:butt;stroke-linejoin:miter;stroke-miterlimit:10;stroke-dasharray:none;stroke-opacity:1"
           id="path40"
           inkscape:connector-curvature="0" /></g><g
         id="g42"
         transform="matrix(1,0,0,-1,0,640)"><path
           d="m 453.809,161.199 -6.403,3.199 1.602,-3.199 -1.602,-3.199 6.403,3.199 z"
           style="fill:#000000;fill-opacity:1;fill-rule:nonzero;stroke:#000000;stroke-width:1.60000002;stroke-linecap:butt;stroke-linejoin:miter;stroke-miterlimit:10;stroke-dasharray:none;stroke-opacity:1"
           id="path44"
           inkscape:connector-curvature="0" /></g><g
         id="g46"
         transform="matrix(1,0,0,-1,0,640)"><path
           d="m 455.602,224.398 -57.411,0"
           style="fill:none;stroke:#000000;stroke-width:1.60000002;stroke-linecap:butt;stroke-linejoin:miter;stroke-miterlimit:10;stroke-dasharray:none;stroke-opacity:1"
           id="path48"
           inkscape:connector-curvature="0" /></g><g
         id="g50"
         transform="matrix(1,0,0,-1,0,640)"><path
           d="m 393.391,224.398 6.402,-3.199 -1.602,3.199 1.602,3.204 -6.402,-3.204 z"
           style="fill:#000000;fill-opacity:1;fill-rule:nonzero;stroke:#000000;stroke-width:1.60000002;stroke-linecap:butt;stroke-linejoin:miter;stroke-miterlimit:10;stroke-dasharray:none;stroke-opacity:1"
           id="path52"
           inkscape:connector-curvature="0" /></g><g
         id="g54"
         transform="matrix(1,0,0,-1,0,640)"><path
           d="m 418,142.801 11.199,0 c 1.332,0 2.403,1.07 2.403,2.398 l 0,11.199 c 0,1.332 -1.071,2.403 -2.403,2.403 l -11.199,0 c -1.328,0 -2.398,-1.071 -2.398,-2.403 l 0,-11.199 c 0,-1.328 1.07,-2.398 2.398,-2.398 z"
           style="fill:#ffff00;fill-opacity:1;fill-rule:nonzero;stroke:#000000;stroke-width:1.60000002;stroke-linecap:butt;stroke-linejoin:miter;stroke-miterlimit:4;stroke-dasharray:none;stroke-opacity:1"
           id="path56"
           inkscape:connector-curvature="0" /></g><g
         id="g58"
         transform="matrix(1,0,0,-1,0,640)"><path
           d="m 418,204.398 11.199,0 c 1.332,0 2.403,1.071 2.403,2.403 l 0,11.199 c 0,1.328 -1.071,2.398 -2.403,2.398 l -11.199,0 c -1.328,0 -2.398,-1.07 -2.398,-2.398 l 0,-11.199 c 0,-1.332 1.07,-2.403 2.398,-2.403 z"
           style="fill:#7ea6e0;fill-opacity:1;fill-rule:nonzero;stroke:#000000;stroke-width:1.60000002;stroke-linecap:butt;stroke-linejoin:miter;stroke-miterlimit:4;stroke-dasharray:none;stroke-opacity:1"
           id="path60"
           inkscape:connector-curvature="0" /></g><g
         id="g62"
         transform="matrix(1,0,0,-1,0,640)"><path
           d="m 744.398,159.602 57.411,0"
           style="fill:none;stroke:#000000;stroke-width:1.60000002;stroke-linecap:butt;stroke-linejoin:miter;stroke-miterlimit:10;stroke-dasharray:none;stroke-opacity:1"
           id="path64"
           inkscape:connector-curvature="0" /></g><g
         id="g66"
         transform="matrix(1,0,0,-1,0,640)"><path
           d="m 806.609,159.602 -6.402,3.199 1.602,-3.199 -1.602,-3.204 6.402,3.204 z"
           style="fill:#000000;fill-opacity:1;fill-rule:nonzero;stroke:#000000;stroke-width:1.60000002;stroke-linecap:butt;stroke-linejoin:miter;stroke-miterlimit:10;stroke-dasharray:none;stroke-opacity:1"
           id="path68"
           inkscape:connector-curvature="0" /></g><g
         id="g70"
         transform="matrix(1,0,0,-1,0,640)"><path
           d="m 648.398,128.398 96,0 0,125.602 -96,0 0,-125.602 z"
           style="fill:#a9c4eb;fill-opacity:1;fill-rule:nonzero;stroke:#000000;stroke-width:1.60000002;stroke-linecap:butt;stroke-linejoin:miter;stroke-miterlimit:4;stroke-dasharray:none;stroke-opacity:1"
           id="path72"
           inkscape:connector-curvature="0" /></g><g
         id="g74"
         transform="matrix(1,0,0,-1,0,640)"><path
           d="m 808.398,222.801 -57.406,0"
           style="fill:none;stroke:#000000;stroke-width:1.60000002;stroke-linecap:butt;stroke-linejoin:miter;stroke-miterlimit:10;stroke-dasharray:none;stroke-opacity:1"
           id="path76"
           inkscape:connector-curvature="0" /></g><g
         id="g78"
         transform="matrix(1,0,0,-1,0,640)"><path
           d="m 746.191,222.801 6.403,-3.199 -1.602,3.199 1.602,3.199 -6.403,-3.199 z"
           style="fill:#000000;fill-opacity:1;fill-rule:nonzero;stroke:#000000;stroke-width:1.60000002;stroke-linecap:butt;stroke-linejoin:miter;stroke-miterlimit:10;stroke-dasharray:none;stroke-opacity:1"
           id="path80"
           inkscape:connector-curvature="0" /></g><g
         id="g82"
         transform="matrix(1,0,0,-1,0,640)"><path
           d="m 808.398,128.398 96,0 0,125.602 -96,0 0,-125.602 z"
           style="fill:#a9c4eb;fill-opacity:1;fill-rule:nonzero;stroke:#000000;stroke-width:1.60000002;stroke-linecap:butt;stroke-linejoin:miter;stroke-miterlimit:4;stroke-dasharray:none;stroke-opacity:1"
           id="path84"
           inkscape:connector-curvature="0" /></g><g
         id="g86"
         transform="matrix(1,0,0,-1,0,640)"><path
           d="m 770.801,141.199 11.199,0 c 1.328,0 2.398,1.071 2.398,2.403 l 0,11.199 c 0,1.328 -1.07,2.398 -2.398,2.398 l -11.199,0 c -1.332,0 -2.403,-1.07 -2.403,-2.398 l 0,-11.199 c 0,-1.332 1.071,-2.403 2.403,-2.403 z"
           style="fill:#ffff00;fill-opacity:1;fill-rule:nonzero;stroke:#000000;stroke-width:1.60000002;stroke-linecap:butt;stroke-linejoin:miter;stroke-miterlimit:4;stroke-dasharray:none;stroke-opacity:1"
           id="path88"
           inkscape:connector-curvature="0" /></g><g
         id="g90"
         transform="matrix(1,0,0,-1,0,640)"><path
           d="m 770.801,202.801 11.199,0 c 1.328,0 2.398,1.07 2.398,2.398 l 0,11.199 c 0,1.332 -1.07,2.403 -2.398,2.403 l -11.199,0 c -1.332,0 -2.403,-1.071 -2.403,-2.403 l 0,-11.199 c 0,-1.328 1.071,-2.398 2.403,-2.398 z"
           style="fill:#7ea6e0;fill-opacity:1;fill-rule:nonzero;stroke:#000000;stroke-width:1.60000002;stroke-linecap:butt;stroke-linejoin:miter;stroke-miterlimit:4;stroke-dasharray:none;stroke-opacity:1"
           id="path92"
           inkscape:connector-curvature="0" /></g><g
         id="g94"
         transform="matrix(1,0,0,-1,0,640)"><path
           d="m 659.848,332.609 c -36.68,0 -45.848,25.008 -16.504,30.016 -29.344,11 3.672,35.008 27.511,25.008 16.504,20.008 71.528,20.008 89.872,0 36.679,0 36.679,-20.008 13.753,-30.016 22.926,-20.008 -13.753,-40.015 -45.847,-30.008 -22.93,-15.007 -59.61,-15.007 -68.785,5 z"
           style="fill:#97d077;fill-opacity:1;fill-rule:nonzero;stroke:#000000;stroke-width:1.60000002;stroke-linecap:butt;stroke-linejoin:miter;stroke-miterlimit:10;stroke-dasharray:none;stroke-opacity:1"
           id="path96"
           inkscape:connector-curvature="0" /></g><g
         id="g98"
         transform="matrix(1,0,0,-1,0,640)"><path
           d="m 736.406,337.609 10.41,0 c 0.981,0 1.77,0.789 1.77,1.766 l 0,8.234 c 0,0.977 -0.789,1.766 -1.77,1.766 l -10.41,0 c -0.976,0 -1.765,-0.789 -1.765,-1.766 l 0,-8.234 c 0,-0.977 0.789,-1.766 1.765,-1.766 z"
           style="fill:#ffff00;fill-opacity:1;fill-rule:nonzero;stroke:#000000;stroke-width:1.60000002;stroke-linecap:butt;stroke-linejoin:miter;stroke-miterlimit:4;stroke-dasharray:none;stroke-opacity:1"
           id="path100"
           inkscape:connector-curvature="0" /></g><g
         id="g102"
         transform="matrix(1,0,0,-1,0,640)"><path
           d="m 736.406,351.734 10.41,0 c 0.981,0 1.77,0.789 1.77,1.77 l 0,8.23 c 0,0.981 -0.789,1.77 -1.77,1.77 l -10.41,0 c -0.976,0 -1.765,-0.789 -1.765,-1.77 l 0,-8.23 c 0,-0.981 0.789,-1.77 1.765,-1.77 z"
           style="fill:#7ea6e0;fill-opacity:1;fill-rule:nonzero;stroke:#000000;stroke-width:1.60000002;stroke-linecap:butt;stroke-linejoin:miter;stroke-miterlimit:4;stroke-dasharray:none;stroke-opacity:1"
           id="path104"
           inkscape:connector-curvature="0" /></g><g
         id="g106"
         transform="matrix(1,0,0,-1,0,640)"><path
           d="m 736.406,365.855 10.41,0 c 0.981,0 1.77,0.79 1.77,1.77 l 0,8.23 c 0,0.981 -0.789,1.77 -1.77,1.77 l -10.41,0 c -0.976,0 -1.765,-0.789 -1.765,-1.77 l 0,-8.23 c 0,-0.98 0.789,-1.77 1.765,-1.77 z"
           style="fill:#ffff00;fill-opacity:1;fill-rule:nonzero;stroke:#000000;stroke-width:1.60000002;stroke-linecap:butt;stroke-linejoin:miter;stroke-miterlimit:4;stroke-dasharray:none;stroke-opacity:1"
           id="path108"
           inkscape:connector-curvature="0" /></g><g
         id="g110"
         transform="matrix(1,0,0,-1,0,640)"><path
           d="m 736.406,379.984 10.41,0 c 0.981,0 1.77,0.789 1.77,1.77 l 0,8.23 c 0,0.981 -0.789,1.77 -1.77,1.77 l -10.41,0 c -0.976,0 -1.765,-0.789 -1.765,-1.77 l 0,-8.23 c 0,-0.981 0.789,-1.77 1.765,-1.77 z"
           style="fill:#7ea6e0;fill-opacity:1;fill-rule:nonzero;stroke:#000000;stroke-width:1.60000002;stroke-linecap:butt;stroke-linejoin:miter;stroke-miterlimit:4;stroke-dasharray:none;stroke-opacity:1"
           id="path112"
           inkscape:connector-curvature="0" /></g><g
         id="g114"
         transform="matrix(1,0,0,-1,0,640)"><path
           d="m 295.602,317.199 96,0 0,125.602 -96,0 0,-125.602 z"
           style="fill:#a9c4eb;fill-opacity:1;fill-rule:nonzero;stroke:#000000;stroke-width:1.60000002;stroke-linecap:butt;stroke-linejoin:miter;stroke-miterlimit:4;stroke-dasharray:none;stroke-opacity:1"
           id="path116"
           inkscape:connector-curvature="0" /></g><g
         id="g118"
         transform="matrix(1,0,0,-1,0,640)"><path
           d="m 319.602,255.602 0,55.007"
           style="fill:none;stroke:#000000;stroke-width:1.60000002;stroke-linecap:butt;stroke-linejoin:miter;stroke-miterlimit:10;stroke-dasharray:none;stroke-opacity:1"
           id="path120"
           inkscape:connector-curvature="0" /></g><g
         id="g122"
         transform="matrix(1,0,0,-1,0,640)"><path
           d="m 319.602,315.406 -3.204,-6.398 3.204,1.601 3.199,-1.601 -3.199,6.398 z"
           style="fill:#000000;fill-opacity:1;fill-rule:nonzero;stroke:#000000;stroke-width:1.60000002;stroke-linecap:butt;stroke-linejoin:miter;stroke-miterlimit:10;stroke-dasharray:none;stroke-opacity:1"
           id="path124"
           inkscape:connector-curvature="0" /></g><g
         id="g126"
         transform="matrix(1,0,0,-1,0,640)"><path
           d="m 367.602,317.199 0,-55.008"
           style="fill:none;stroke:#000000;stroke-width:1.60000002;stroke-linecap:butt;stroke-linejoin:miter;stroke-miterlimit:10;stroke-dasharray:none;stroke-opacity:1"
           id="path128"
           inkscape:connector-curvature="0" /></g><g
         id="g130"
         transform="matrix(1,0,0,-1,0,640)"><path
           d="m 367.602,257.391 3.199,6.402 -3.199,-1.602 -3.204,1.602 3.204,-6.402 z"
           style="fill:#000000;fill-opacity:1;fill-rule:nonzero;stroke:#000000;stroke-width:1.60000002;stroke-linecap:butt;stroke-linejoin:miter;stroke-miterlimit:10;stroke-dasharray:none;stroke-opacity:1"
           id="path132"
           inkscape:connector-curvature="0" /></g><g
         id="g134"
         transform="matrix(1,0,0,-1,0,640)"><path
           d="m 303.602,281.199 11.199,0 c 1.328,0 2.398,1.071 2.398,2.403 l 0,11.199 c 0,1.328 -1.07,2.398 -2.398,2.398 l -11.199,0 c -1.332,0 -2.403,-1.07 -2.403,-2.398 l 0,-11.199 c 0,-1.332 1.071,-2.403 2.403,-2.403 z"
           style="fill:#ffff00;fill-opacity:1;fill-rule:nonzero;stroke:#000000;stroke-width:1.60000002;stroke-linecap:butt;stroke-linejoin:miter;stroke-miterlimit:4;stroke-dasharray:none;stroke-opacity:1"
           id="path136"
           inkscape:connector-curvature="0" /></g><g
         id="g138"
         transform="matrix(1,0,0,-1,0,640)"><path
           d="m 373.199,282 11.199,0 c 1.332,0 2.403,1.07 2.403,2.398 l 0,11.204 c 0,1.328 -1.071,2.398 -2.403,2.398 l -11.199,0 c -1.328,0 -2.398,-1.07 -2.398,-2.398 l 0,-11.204 c 0,-1.328 1.07,-2.398 2.398,-2.398 z"
           style="fill:#7ea6e0;fill-opacity:1;fill-rule:nonzero;stroke:#000000;stroke-width:1.60000002;stroke-linecap:butt;stroke-linejoin:miter;stroke-miterlimit:4;stroke-dasharray:none;stroke-opacity:1"
           id="path140"
           inkscape:connector-curvature="0" /></g><g
         id="g142"
         transform="matrix(1,0,0,-1,0,640)"><path
           d="m 461.801,485.602 c -42.082,0 -52.602,34 -18.938,40.796 -33.664,14.961 4.207,47.602 31.563,34 18.933,27.204 82.054,27.204 103.094,0 42.082,0 42.082,-27.199 15.785,-40.796 26.297,-27.204 -15.785,-54.403 -52.602,-40.801 -26.305,-20.403 -68.383,-20.403 -78.902,6.801 z"
           style="fill:#97d077;fill-opacity:1;fill-rule:nonzero;stroke:#000000;stroke-width:1.60000002;stroke-linecap:butt;stroke-linejoin:miter;stroke-miterlimit:10;stroke-dasharray:none;stroke-opacity:1"
           id="path144"
           inkscape:connector-curvature="0" /></g><g
         id="g146"
         transform="matrix(1,0,0,-1,0,640)"><path
           d="m 510.801,512.398 11.199,0 c 1.328,0 2.398,1.071 2.398,2.403 l 0,11.199 c 0,1.328 -1.07,2.398 -2.398,2.398 l -11.199,0 c -1.332,0 -2.403,-1.07 -2.403,-2.398 l 0,-11.199 c 0,-1.332 1.071,-2.403 2.403,-2.403 z"
           style="fill:#ffff00;fill-opacity:1;fill-rule:nonzero;stroke:#000000;stroke-width:1.60000002;stroke-linecap:butt;stroke-linejoin:miter;stroke-miterlimit:4;stroke-dasharray:none;stroke-opacity:1"
           id="path148"
           inkscape:connector-curvature="0" /></g><g
         id="g150"
         transform="matrix(1,0,0,-1,0,640)"><path
           d="m 530,512.398 11.199,0 c 1.332,0 2.403,1.071 2.403,2.403 l 0,11.199 c 0,1.328 -1.071,2.398 -2.403,2.398 l -11.199,0 c -1.328,0 -2.398,-1.07 -2.398,-2.398 l 0,-11.199 c 0,-1.332 1.07,-2.403 2.398,-2.403 z"
           style="fill:#7ea6e0;fill-opacity:1;fill-rule:nonzero;stroke:#000000;stroke-width:1.60000002;stroke-linecap:butt;stroke-linejoin:miter;stroke-miterlimit:4;stroke-dasharray:none;stroke-opacity:1"
           id="path152"
           inkscape:connector-curvature="0" /></g><g
         id="g154"
         transform="matrix(1,0,0,-1,0,640)"><path
           d="m 659.602,461.199 160,0 0,125.602 -160,0 0,-125.602 z"
           style="fill:#a9c4eb;fill-opacity:1;fill-rule:nonzero;stroke:#000000;stroke-width:1.60000002;stroke-linecap:butt;stroke-linejoin:miter;stroke-miterlimit:4;stroke-dasharray:none;stroke-opacity:1"
           id="path156"
           inkscape:connector-curvature="0" /></g><g
         id="g158"
         transform="matrix(1,0,0,-1,0,640)"><path
           d="m 596.398,513.039 32,0 0,-11.039 32,18.398 -32,18.403 0,-11.039 -32,0 0,-14.723 z"
           style="fill:#ff8000;fill-opacity:1;fill-rule:nonzero;stroke:#000000;stroke-width:1.60000002;stroke-linecap:butt;stroke-linejoin:miter;stroke-miterlimit:10;stroke-dasharray:none;stroke-opacity:1"
           id="path160"
           inkscape:connector-curvature="0" /></g><g
         id="g162"
         transform="matrix(0,-1,-1,0,0,640)"><path
           d="m 394.801,-765.84 36.801,0 0,-12.961 32,21.602 -32,21.597 0,-12.957 -36.801,0 0,-17.281 z"
           style="fill:#ff8000;fill-opacity:1;fill-rule:nonzero;stroke:#000000;stroke-width:1.60000002;stroke-linecap:butt;stroke-linejoin:miter;stroke-miterlimit:10;stroke-dasharray:none;stroke-opacity:1"
           id="path164"
           inkscape:connector-curvature="0" /></g><g
         id="g166"
         transform="matrix(1,0,0,-1,0,640)"><path
           d="m 549.199,512.398 12,0 c 1.332,0 2.403,1.071 2.403,2.403 l 0,11.199 c 0,1.328 -1.071,2.398 -2.403,2.398 l -12,0 c -1.328,0 -2.398,-1.07 -2.398,-2.398 l 0,-11.199 c 0,-1.332 1.07,-2.403 2.398,-2.403 z"
           style="fill:#ffff00;fill-opacity:1;fill-rule:nonzero;stroke:#000000;stroke-width:1.60000002;stroke-linecap:butt;stroke-linejoin:miter;stroke-miterlimit:4;stroke-dasharray:none;stroke-opacity:1"
           id="path168"
           inkscape:connector-curvature="0" /></g><g
         id="g170"
         transform="matrix(1,0,0,-1,0,640)"><path
           d="m 568.398,512.398 12,0 c 1.332,0 2.403,1.071 2.403,2.403 l 0,11.199 c 0,1.328 -1.071,2.398 -2.403,2.398 l -12,0 C 567.07,528.398 566,527.328 566,526 l 0,-11.199 c 0,-1.332 1.07,-2.403 2.398,-2.403 z"
           style="fill:#7ea6e0;fill-opacity:1;fill-rule:nonzero;stroke:#000000;stroke-width:1.60000002;stroke-linecap:butt;stroke-linejoin:miter;stroke-miterlimit:4;stroke-dasharray:none;stroke-opacity:1"
           id="path172"
           inkscape:connector-curvature="0" /></g><g
         id="g174"
         transform="matrix(1,0,0,-1,0,640)"><path
           d="m 78.602,151.199 c -42.082,0 -52.602,34 -18.938,40.801 -33.664,14.961 4.207,47.602 31.559,34 18.937,27.199 82.058,27.199 103.097,0 42.078,0 42.078,-27.199 15.785,-40.801 C 236.398,158 194.32,130.801 157.504,144.398 131.199,124 89.121,124 78.602,151.199 Z"
           style="fill:#97d077;fill-opacity:1;fill-rule:nonzero;stroke:#000000;stroke-width:1.60000002;stroke-linecap:butt;stroke-linejoin:miter;stroke-miterlimit:10;stroke-dasharray:none;stroke-opacity:1"
           id="path176"
           inkscape:connector-curvature="0" /></g><g
         id="g178"
         transform="matrix(1,0,0,-1,0,640)"><path
           d="m 212.98,179.438 48.864,0 0,-11.434 31.57,21.57 -31.57,21.571 0,-11.434 -48.864,0 0,-20.273 z"
           style="fill:#ff8000;fill-opacity:1;fill-rule:nonzero;stroke:#000000;stroke-width:2.14299512;stroke-linecap:butt;stroke-linejoin:miter;stroke-miterlimit:10;stroke-dasharray:none;stroke-opacity:1"
           id="path180"
           inkscape:connector-curvature="0" /></g><g
         id="g182"
         transform="matrix(1,0,0,-1,0,640)"><path
           d="M 126.801,182 138,182 c 1.328,0 2.398,1.07 2.398,2.398 l 0,11.204 c 0,1.328 -1.07,2.398 -2.398,2.398 l -11.199,0 c -1.332,0 -2.403,-1.07 -2.403,-2.398 l 0,-11.204 c 0,-1.328 1.071,-2.398 2.403,-2.398 z"
           style="fill:#ffff00;fill-opacity:1;fill-rule:nonzero;stroke:#000000;stroke-width:1.60000002;stroke-linecap:butt;stroke-linejoin:miter;stroke-miterlimit:4;stroke-dasharray:none;stroke-opacity:1"
           id="path184"
           inkscape:connector-curvature="0" /></g><g
         id="g186"
         transform="matrix(1,0,0,-1,0,640)"><path
           d="m 146,182 11.199,0 c 1.332,0 2.403,1.07 2.403,2.398 l 0,11.204 c 0,1.328 -1.071,2.398 -2.403,2.398 L 146,198 c -1.328,0 -2.398,-1.07 -2.398,-2.398 l 0,-11.204 c 0,-1.328 1.07,-2.398 2.398,-2.398 z"
           style="fill:#7ea6e0;fill-opacity:1;fill-rule:nonzero;stroke:#000000;stroke-width:1.60000002;stroke-linecap:butt;stroke-linejoin:miter;stroke-miterlimit:4;stroke-dasharray:none;stroke-opacity:1"
           id="path188"
           inkscape:connector-curvature="0" /></g><g
         id="g190"
         transform="matrix(1,0,0,-1,0,640)"><path
           d="m 165.199,182 12,0 c 1.332,0 2.403,1.07 2.403,2.398 l 0,11.204 c 0,1.328 -1.071,2.398 -2.403,2.398 l -12,0 c -1.328,0 -2.398,-1.07 -2.398,-2.398 l 0,-11.204 c 0,-1.328 1.07,-2.398 2.398,-2.398 z"
           style="fill:#ffff00;fill-opacity:1;fill-rule:nonzero;stroke:#000000;stroke-width:1.60000002;stroke-linecap:butt;stroke-linejoin:miter;stroke-miterlimit:4;stroke-dasharray:none;stroke-opacity:1"
           id="path192"
           inkscape:connector-curvature="0" /></g><g
         id="g194"
         transform="matrix(1,0,0,-1,0,640)"><path
           d="m 184.398,182 12,0 c 1.332,0 2.403,1.07 2.403,2.398 l 0,11.204 c 0,1.328 -1.071,2.398 -2.403,2.398 l -12,0 C 183.07,198 182,196.93 182,195.602 l 0,-11.204 c 0,-1.328 1.07,-2.398 2.398,-2.398 z"
           style="fill:#7ea6e0;fill-opacity:1;fill-rule:nonzero;stroke:#000000;stroke-width:1.60000002;stroke-linecap:butt;stroke-linejoin:miter;stroke-miterlimit:4;stroke-dasharray:none;stroke-opacity:1"
           id="path196"
           inkscape:connector-curvature="0" /></g><g
         id="g198"
         transform="matrix(0,-1,-1,0,0,640)"><path
           d="m 436.398,-505.199 30.403,22 -30.403,22 0,-10 -49.597,0 0,79.597 -24,0 0,-103.597 73.597,0 0,-10 z"
           style="fill:#ff8000;fill-opacity:1;fill-rule:nonzero;stroke:#000000;stroke-width:2.4000001;stroke-linecap:butt;stroke-linejoin:miter;stroke-miterlimit:10;stroke-dasharray:none;stroke-opacity:1"
           id="path200"
           inkscape:connector-curvature="0" /></g><g
         id="g202"
         transform="matrix(-1,0,0,1,0,640)"><path
           d="m -806,-368.398 30.398,22 -30.398,22 0,-10 -49.602,0 0,79.597 -24,0 0,-103.597 73.602,0 0,-10 z"
           style="fill:#ff8000;fill-opacity:1;fill-rule:nonzero;stroke:#000000;stroke-width:2.4000001;stroke-linecap:butt;stroke-linejoin:miter;stroke-miterlimit:10;stroke-dasharray:none;stroke-opacity:1"
           id="path204"
           inkscape:connector-curvature="0" /></g><g
         id="g206"
         transform="matrix(1,0,0,-1,0,640)"><path
           d="m 4.398,9.199 1032,0 0,624 -1032,0 0,-624 z"
           style="fill:none;stroke:#000000;stroke-width:1.60000002;stroke-linecap:butt;stroke-linejoin:miter;stroke-miterlimit:4;stroke-dasharray:4.8, 4.8;stroke-dashoffset:0;stroke-opacity:1"
           id="path208"
           inkscape:connector-curvature="0" /></g><g
         id="g210"
         transform="matrix(1,0,0,-1,0,640)"><path
           d="m 174.246,134.969 0,33.734"
           style="fill:none;stroke:#000000;stroke-width:1.25298202;stroke-linecap:butt;stroke-linejoin:miter;stroke-miterlimit:10;stroke-dasharray:none;stroke-opacity:1"
           id="path212"
           inkscape:connector-curvature="0" /></g><text
         transform="matrix(1,0,0,-1,72.823627,468.2328)"
         style="font-variant:normal;font-weight:normal;font-size:16px;font-family:'DejaVu Sans';-inkscape-font-specification:DejaVuSans;writing-mode:lr-tb;fill:#000000;fill-opacity:1;fill-rule:nonzero;stroke:none"
         id="text214"><tspan
           x="0 8.3199997 18.16 28.304001 38.431999 48.271999 58.400002 67.232002"
           y="0"
           sodipodi:role="line"
           id="tspan216">sequence</tspan><tspan
           x="65.604996 71.876991 78.452995 88.244995 98.42099 106.74099 116.53299 125.31699 131.58899 136.021 145.797"
           y="-72.752594"
           sodipodi:role="line"
           id="tspan218">transaction</tspan></text>
<text
         transform="matrix(1,0,0,-1,149.04167,517.65264)"
         style="font-variant:normal;font-weight:normal;font-size:22px;font-family:'DejaVu Sans';-inkscape-font-specification:DejaVuSans;writing-mode:lr-tb;fill:#000000;fill-opacity:1;fill-rule:nonzero;stroke:none"
         id="text220"><tspan
           x="0"
           y="0"
           id="tspan222">T</tspan></text>
<text
         transform="matrix(1,0,0,-1,162.49089,513.25264)"
         style="font-variant:normal;font-weight:normal;font-size:14.30000019px;font-family:'DejaVu Sans';-inkscape-font-specification:DejaVuSans;writing-mode:lr-tb;fill:#000000;fill-opacity:1;fill-rule:nonzero;stroke:none"
         id="text224"><tspan
           x="0 3.9611001"
           y="0"
           sodipodi:role="line"
           id="tspan226">in</tspan></text>
<text
         transform="matrix(1,0,0,-1,175.53406,517.65264)"
         style="font-variant:normal;font-weight:normal;font-size:22px;font-family:'DejaVu Sans';-inkscape-font-specification:DejaVuSans;writing-mode:lr-tb;fill:#000000;fill-opacity:1;fill-rule:nonzero;stroke:none"
         id="text228"><tspan
           x="0 8.5799999 21.318001 28.292"
           y="0"
           sodipodi:role="line"
           id="tspan230">(k, </tspan></text>
<text
         transform="matrix(1,0,0,-1,210.80006,517.65264)"
         style="font-variant:normal;font-weight:normal;font-size:22px;font-family:'DejaVu Sans';-inkscape-font-specification:DejaVuSans;writing-mode:lr-tb;fill:#000000;fill-opacity:1;fill-rule:nonzero;stroke:none"
         id="text232"><tspan
           x="0"
           y="0"
           id="tspan234">τ</tspan></text>
<text
         transform="matrix(1,0,0,-1,224.04406,517.65264)"
         style="font-variant:normal;font-weight:normal;font-size:22px;font-family:'DejaVu Sans';-inkscape-font-specification:DejaVuSans;writing-mode:lr-tb;fill:#000000;fill-opacity:1;fill-rule:nonzero;stroke:none"
         id="text236"><tspan
           x="0"
           y="0"
           id="tspan238">)</tspan></text>
<g
         id="g240"
         transform="matrix(1,0,0,-1,0,640)"><path
           d="m 174.719,129.84 3.32,6.344 -3.23,-1.543 -3.168,1.66 3.078,-6.461 z"
           style="fill:#000000;fill-opacity:1;fill-rule:nonzero;stroke:#000000;stroke-width:1.60000002;stroke-linecap:butt;stroke-linejoin:miter;stroke-miterlimit:10;stroke-dasharray:none;stroke-opacity:1"
           id="path242"
           inkscape:connector-curvature="0" /></g><text
         transform="matrix(1,0,0,-1,866.03281,609.37578)"
         style="font-variant:normal;font-weight:normal;font-size:16px;font-family:'DejaVu Sans';-inkscape-font-specification:DejaVuSans;writing-mode:lr-tb;fill:#000000;fill-opacity:1;fill-rule:nonzero;stroke:none"
         id="text244"><tspan
           x="0 10.096 22.063999 33.007999 37.712002 48.816002 61.408001 73.375999 87.167999 97.264 109.232"
           y="0"
           sodipodi:role="line"
           id="tspan246">ENVIRONMENT</tspan><tspan
           x="-35.972271 -27.348272 -16.404272 -6.260272 3.883728 8.5877275 19.531729 29.627728 34.699726 45.355728 57.739727 67.835732 79.803726"
           y="68.527168"
           sodipodi:role="line"
           id="tspan248">PASSIVE AGENT</tspan><tspan
           x="-467.2998 -456.6438 -445.4758 -435.71579 -431.01178 -420.06778 -409.9718 -404.89978 -394.21179 -381.82779 -371.73178 -359.76379"
           y="62.446239"
           sodipodi:role="line"
           id="tspan250">ACTIVE AGENT</tspan><tspan
           x="-563.40411 -555.08417 -545.24414 -535.10016 -524.97217 -515.13214 -505.00415 -496.17215 -486.33215"
           y="165.38062"
           sodipodi:role="line"
           id="tspan252">sequencer</tspan><tspan
           x="-563.19604 -556.95605 -547.11603 -541.48401 -531.64404 -525.40405 -515.56403 -505.43604 -496.65204"
           y="343.41068"
           sodipodi:role="line"
           id="tspan254">reference</tspan><tspan
           x="-563.19604 -547.98004 -532.39606 -522.62006 -512.47601 -502.63605"
           y="363.41068"
           sodipodi:role="line"
           id="tspan256"> model</tspan><tspan
           x="-185.53648 -173.21649 -161.52049"
           y="164.95259"
           sodipodi:role="line"
           id="tspan258">DUT</tspan><tspan
           x="-389.0134 -378.86938 -372.2934 -367.86139 -358.4054 -348.5654"
           y="166.98062"
           sodipodi:role="line"
           id="tspan260">driver</tspan><tspan
           x="-39.918472 -24.334471 -14.558471 -4.4304705 0.0015296 6.2735295 16.04953"
           y="164.57996"
           sodipodi:role="line"
           id="tspan262">monitor</tspan><tspan
           x="-380.95383 -370.80981 -359.64182 -347.0498 -335.9458 -325.84982 -315.12982 -302.80981 -291.86581 -280.76181"
           y="295.72717"
           sodipodi:role="line"
           id="tspan264">SCOREBOARD</tspan><tspan
           x="-178.53911 -167.37111 -154.77911 -140.98711 -132.34711 -121.40311 -110.95511 -101.25911 -91.499107 -78.907112"
           y="500.62427"
           sodipodi:role="line"
           id="tspan266">COMPARATOR</tspan></text>
<text
         transform="matrix(1,0,0,-1,503.3875,87.871631)"
         style="font-variant:normal;font-weight:normal;font-size:22px;font-family:'DejaVu Sans';-inkscape-font-specification:DejaVuSans;writing-mode:lr-tb;fill:#000000;fill-opacity:1;fill-rule:nonzero;stroke:none"
         id="text268"><tspan
           x="0"
           y="0"
           id="tspan270">T</tspan></text>
<text
         transform="matrix(1,0,0,-1,516.83672,83.471631)"
         style="font-variant:normal;font-weight:normal;font-size:14.30000019px;font-family:'DejaVu Sans';-inkscape-font-specification:DejaVuSans;writing-mode:lr-tb;fill:#000000;fill-opacity:1;fill-rule:nonzero;stroke:none"
         id="text272"><tspan
           x="0 8.7372999"
           y="0"
           sodipodi:role="line"
           id="tspan274">or</tspan></text>
<text
         transform="matrix(1,0,0,-1,531.47188,87.871631)"
         style="font-variant:normal;font-weight:normal;font-size:22px;font-family:'DejaVu Sans';-inkscape-font-specification:DejaVuSans;writing-mode:lr-tb;fill:#000000;fill-opacity:1;fill-rule:nonzero;stroke:none"
         id="text276"><tspan
           x="0 8.5799999 21.318001"
           y="0"
           sodipodi:role="line"
           id="tspan278">(k,</tspan></text>
<text
         transform="matrix(1,0,0,-1,559.76388,87.871631)"
         style="font-variant:normal;font-weight:normal;font-size:22px;font-family:'DejaVu Sans';-inkscape-font-specification:DejaVuSans;writing-mode:lr-tb;fill:#000000;fill-opacity:1;fill-rule:nonzero;stroke:none"
         id="text280"><tspan
           x="0"
           y="0"
           id="tspan282">τ</tspan></text>
<text
         transform="matrix(1,0,0,-1,573.00788,87.871631)"
         style="font-variant:normal;font-weight:normal;font-size:22px;font-family:'DejaVu Sans';-inkscape-font-specification:DejaVuSans;writing-mode:lr-tb;fill:#000000;fill-opacity:1;fill-rule:nonzero;stroke:none"
         id="text284"><tspan
           x="0"
           y="0"
           id="tspan286">)</tspan><tspan
           x="15.292134"
           y="-401.26736"
           id="tspan288">s</tspan></text>
<text
         transform="matrix(1,0,0,-1,599.77266,484.73899)"
         style="font-variant:normal;font-weight:normal;font-size:14.30000019px;font-family:'DejaVu Sans';-inkscape-font-specification:DejaVuSans;writing-mode:lr-tb;fill:#000000;fill-opacity:1;fill-rule:nonzero;stroke:none"
         id="text290"><tspan
           x="0 3.9611001"
           y="0"
           sodipodi:role="line"
           id="tspan292">in</tspan></text>
<text
         transform="matrix(1,0,0,-1,612.81582,489.13899)"
         style="font-variant:normal;font-weight:normal;font-size:22px;font-family:'DejaVu Sans';-inkscape-font-specification:DejaVuSans;writing-mode:lr-tb;fill:#000000;fill-opacity:1;fill-rule:nonzero;stroke:none"
         id="text294"><tspan
           x="0 8.5799999 17.204"
           y="0"
           sodipodi:role="line"
           id="tspan296">(t)</tspan><tspan
           x="136.56017"
           y="-21.034904"
           id="tspan298">s</tspan></text>
<text
         transform="matrix(1,0,0,-1,760.84863,505.7739)"
         style="font-variant:normal;font-weight:normal;font-size:14.30000019px;font-family:'DejaVu Sans';-inkscape-font-specification:DejaVuSans;writing-mode:lr-tb;fill:#000000;fill-opacity:1;fill-rule:nonzero;stroke:none"
         id="text300"><tspan
           x="0"
           y="0"
           id="tspan302">o</tspan></text>
<text
         transform="matrix(1,0,0,-1,769.59062,510.1739)"
         style="font-variant:normal;font-weight:normal;font-size:22px;font-family:'DejaVu Sans';-inkscape-font-specification:DejaVuSans;writing-mode:lr-tb;fill:#000000;fill-opacity:1;fill-rule:nonzero;stroke:none"
         id="text304"><tspan
           x="0 8.5799999 17.204"
           y="0"
           sodipodi:role="line"
           id="tspan306">(t)</tspan><tspan
           x="-58.736721"
           y="363.87115"
           id="tspan308">c</tspan></text>
<text
         transform="matrix(1,0,0,-1,722.97109,141.90273)"
         style="font-variant:normal;font-weight:normal;font-size:14.30000019px;font-family:'DejaVu Sans';-inkscape-font-specification:DejaVuSans;writing-mode:lr-tb;fill:#000000;fill-opacity:1;fill-rule:nonzero;stroke:none"
         id="text310"><tspan
           x="0"
           y="0"
           id="tspan312">e</tspan></text>
<text
         transform="matrix(1,0,0,-1,731.76895,146.30273)"
         style="font-variant:normal;font-weight:normal;font-size:22px;font-family:'DejaVu Sans';-inkscape-font-specification:DejaVuSans;writing-mode:lr-tb;fill:#000000;fill-opacity:1;fill-rule:nonzero;stroke:none"
         id="text314"><tspan
           x="0 8.5799999 21.318001"
           y="0"
           sodipodi:role="line"
           id="tspan316">(k,</tspan></text>
<text
         transform="matrix(1,0,0,-1,760.06095,146.30273)"
         style="font-variant:normal;font-weight:normal;font-size:22px;font-family:'DejaVu Sans';-inkscape-font-specification:DejaVuSans;writing-mode:lr-tb;fill:#000000;fill-opacity:1;fill-rule:nonzero;stroke:none"
         id="text318"><tspan
           x="0"
           y="0"
           id="tspan320">τ</tspan></text>
<text
         transform="matrix(1,0,0,-1,773.30495,146.30273)"
         style="font-variant:normal;font-weight:normal;font-size:22px;font-family:'DejaVu Sans';-inkscape-font-specification:DejaVuSans;writing-mode:lr-tb;fill:#000000;fill-opacity:1;fill-rule:nonzero;stroke:none"
         id="text322"><tspan
           x="0"
           y="0"
           id="tspan324">)</tspan><tspan
           x="-130.60249"
           y="-132.45958"
           id="tspan326">T</tspan></text>
<text
         transform="matrix(1,0,0,-1,656.15166,274.3623)"
         style="font-variant:normal;font-weight:normal;font-size:14.30000019px;font-family:'DejaVu Sans';-inkscape-font-specification:DejaVuSans;writing-mode:lr-tb;fill:#000000;fill-opacity:1;fill-rule:nonzero;stroke:none"
         id="text328"><tspan
           x="0 8.7372999"
           y="0"
           sodipodi:role="line"
           id="tspan330">od</tspan></text>
<text
         transform="matrix(1,0,0,-1,673.9708,278.7623)"
         style="font-variant:normal;font-weight:normal;font-size:22px;font-family:'DejaVu Sans';-inkscape-font-specification:DejaVuSans;writing-mode:lr-tb;fill:#000000;fill-opacity:1;fill-rule:nonzero;stroke:none"
         id="text332"><tspan
           x="0 8.5799999 21.318001"
           y="0"
           sodipodi:role="line"
           id="tspan334">(k,</tspan></text>
<text
         transform="matrix(1,0,0,-1,702.2628,278.7623)"
         style="font-variant:normal;font-weight:normal;font-size:22px;font-family:'DejaVu Sans';-inkscape-font-specification:DejaVuSans;writing-mode:lr-tb;fill:#000000;fill-opacity:1;fill-rule:nonzero;stroke:none"
         id="text336"><tspan
           x="0"
           y="0"
           id="tspan338">τ</tspan></text>
<text
         transform="matrix(1,0,0,-1,715.5068,278.7623)"
         style="font-variant:normal;font-weight:normal;font-size:22px;font-family:'DejaVu Sans';-inkscape-font-specification:DejaVuSans;writing-mode:lr-tb;fill:#000000;fill-opacity:1;fill-rule:nonzero;stroke:none"
         id="text340"><tspan
           x="0"
           y="0"
           id="tspan342">)</tspan></text>
</g></g></svg>