<!DOCTYPE svg PUBLIC "-//W3C//DTD SVG 1.1//EN" "http://www.w3.org/Graphics/SVG/1.1/DTD/svg11.dtd">
<svg xmlns="http://www.w3.org/2000/svg" xmlns:xlink="http://www.w3.org/1999/xlink" width="404px" height="125px" version="1.1"><defs><linearGradient x1="0%" y1="0%" x2="0%" y2="100%" id="mx-gradient-d4e1f5-1-ffffff-1-s-0"><stop offset="0%" style="stop-color:#D4E1F5"/><stop offset="100%" style="stop-color:#ffffff"/></linearGradient><linearGradient x1="0%" y1="0%" x2="0%" y2="100%" id="mx-gradient-33ff33-1-ffffff-1-s-0"><stop offset="0%" style="stop-color:#33FF33"/><stop offset="100%" style="stop-color:#ffffff"/></linearGradient></defs><g transform="translate(0.5,0.5)"><rect x="42" y="2" width="360" height="80" fill="url(#mx-gradient-d4e1f5-1-ffffff-1-s-0)" stroke="none" pointer-events="none"/><rect x="42" y="2" width="40" height="40" fill="url(#mx-gradient-d4e1f5-1-ffffff-1-s-0)" stroke="#000000" stroke-width="2" pointer-events="none"/><rect x="42" y="42" width="40" height="40" fill="url(#mx-gradient-d4e1f5-1-ffffff-1-s-0)" stroke="#000000" stroke-width="2" pointer-events="none"/><rect x="82" y="2" width="40" height="40" fill="url(#mx-gradient-d4e1f5-1-ffffff-1-s-0)" stroke="#000000" stroke-width="2" pointer-events="none"/><rect x="82" y="42" width="40" height="40" fill="url(#mx-gradient-d4e1f5-1-ffffff-1-s-0)" stroke="#000000" stroke-width="2" pointer-events="none"/><rect x="122" y="2" width="40" height="40" fill="url(#mx-gradient-d4e1f5-1-ffffff-1-s-0)" stroke="#000000" stroke-width="2" pointer-events="none"/><rect x="122" y="42" width="40" height="40" fill="url(#mx-gradient-d4e1f5-1-ffffff-1-s-0)" stroke="#000000" stroke-width="2" pointer-events="none"/><rect x="162" y="2" width="40" height="40" fill="url(#mx-gradient-d4e1f5-1-ffffff-1-s-0)" stroke="#000000" stroke-width="2" pointer-events="none"/><rect x="162" y="42" width="40" height="40" fill="url(#mx-gradient-d4e1f5-1-ffffff-1-s-0)" stroke="#000000" stroke-width="2" pointer-events="none"/><rect x="202" y="2" width="40" height="40" fill="url(#mx-gradient-d4e1f5-1-ffffff-1-s-0)" stroke="#000000" stroke-width="2" pointer-events="none"/><rect x="202" y="42" width="40" height="40" fill="url(#mx-gradient-d4e1f5-1-ffffff-1-s-0)" stroke="#000000" stroke-width="2" pointer-events="none"/><rect x="242" y="2" width="40" height="40" fill="url(#mx-gradient-d4e1f5-1-ffffff-1-s-0)" stroke="#000000" stroke-width="2" pointer-events="none"/><rect x="242" y="42" width="40" height="40" fill="url(#mx-gradient-d4e1f5-1-ffffff-1-s-0)" stroke="#000000" stroke-width="2" pointer-events="none"/><rect x="282" y="2" width="40" height="40" fill="url(#mx-gradient-d4e1f5-1-ffffff-1-s-0)" stroke="#000000" stroke-width="2" pointer-events="none"/><rect x="282" y="42" width="40" height="40" fill="url(#mx-gradient-d4e1f5-1-ffffff-1-s-0)" stroke="#000000" stroke-width="2" pointer-events="none"/><rect x="322" y="2" width="40" height="40" fill="#ffffff" stroke="#000000" stroke-width="2" pointer-events="none"/><rect x="322" y="42" width="40" height="40" fill="#ffffff" stroke="#000000" stroke-width="2" pointer-events="none"/><rect x="322" y="2" width="40" height="40" fill="url(#mx-gradient-d4e1f5-1-ffffff-1-s-0)" stroke="#000000" stroke-width="2" pointer-events="none"/><rect x="322" y="42" width="40" height="40" fill="url(#mx-gradient-d4e1f5-1-ffffff-1-s-0)" stroke="#000000" stroke-width="2" pointer-events="none"/><rect x="362" y="2" width="40" height="40" fill="url(#mx-gradient-d4e1f5-1-ffffff-1-s-0)" stroke="#000000" stroke-width="2" pointer-events="none"/><rect x="362" y="42" width="40" height="40" fill="url(#mx-gradient-d4e1f5-1-ffffff-1-s-0)" stroke="#000000" stroke-width="2" pointer-events="none"/><rect x="2" y="2" width="120" height="121" fill="#ffff33" stroke="none" pointer-events="none"/><rect x="2" y="2" width="40" height="41" fill="#ffff33" stroke="#000000" stroke-width="2" pointer-events="none"/><rect x="2" y="42" width="40" height="41" fill="#ffff33" stroke="#000000" stroke-width="2" pointer-events="none"/><rect x="2" y="82" width="40" height="41" fill="#ffff33" stroke="#000000" stroke-width="2" pointer-events="none"/><rect x="42" y="2" width="40" height="41" fill-opacity="0.3" fill="url(#mx-gradient-33ff33-1-ffffff-1-s-0)" stroke="#000000" stroke-opacity="0.3" stroke-width="2" pointer-events="none"/><rect x="42" y="42" width="40" height="41" fill-opacity="0.3" fill="url(#mx-gradient-33ff33-1-ffffff-1-s-0)" stroke="#000000" stroke-opacity="0.3" stroke-width="2" pointer-events="none"/><rect x="42" y="82" width="40" height="41" fill="#ffff33" stroke="#000000" stroke-width="2" pointer-events="none"/><rect x="82" y="2" width="40" height="41" fill-opacity="0.3" fill="url(#mx-gradient-33ff33-1-ffffff-1-s-0)" stroke="#000000" stroke-opacity="0.3" stroke-width="2" pointer-events="none"/><rect x="82" y="42" width="40" height="41" fill-opacity="0.3" fill="url(#mx-gradient-33ff33-1-ffffff-1-s-0)" stroke="#000000" stroke-opacity="0.3" stroke-width="2" pointer-events="none"/><rect x="82" y="82" width="40" height="41" fill="#ffff33" stroke="#000000" stroke-width="2" pointer-events="none"/></g></svg>