<!DOCTYPE svg PUBLIC "-//W3C//DTD SVG 1.1//EN" "http://www.w3.org/Graphics/SVG/1.1/DTD/svg11.dtd">
<svg xmlns="http://www.w3.org/2000/svg" xmlns:xlink="http://www.w3.org/1999/xlink" width="453px" height="362px" version="1.1"><defs/><g transform="translate(0.5,0.5)"><path d="M 176.78 47 C 173.48 47 171 44.06 171 41.09 L 171 6.5 L 194.68 6.5 L 199.08 2.68 C 200.19 1.84 201.02 1 202.27 1 L 216.56 1 C 217.63 1 219 1.98 219 3.19 L 219 47 Z" fill="#4495d1" stroke="none" pointer-events="none"/><path d="M 68.78 209 C 65.48 209 63 206.06 63 203.09 L 63 168.5 L 86.68 168.5 L 91.08 164.68 C 92.19 163.84 93.02 163 94.27 163 L 108.56 163 C 109.63 163 111 163.98 111 165.19 L 111 209 Z" fill="#4495d1" stroke="none" pointer-events="none"/><path d="M 6.37 358 C 4.16 358 2 356.16 2 353.62 L 2 312 L 27.44 312 L 36 320.48 L 36 358 Z" fill="#4495d1" stroke="none" pointer-events="none"/><path d="M 27.35 320.46 L 27.35 314.13 L 33.57 320.46 Z M 7.37 333.02 L 7.37 329.95 L 30.65 329.95 L 30.65 333.02 Z M 7.37 339.15 L 7.37 336.06 L 30.65 336.06 L 30.65 339.15 Z M 7.37 345.18 L 7.37 342.18 L 30.65 342.18 L 30.65 345.18 Z" fill="#ffffff" stroke="none" pointer-events="none"/><path d="M 47.37 358 C 45.16 358 43 356.16 43 353.62 L 43 312 L 68.44 312 L 77 320.48 L 77 358 Z" fill="#4495d1" stroke="none" pointer-events="none"/><path d="M 68.35 320.46 L 68.35 314.13 L 74.57 320.46 Z M 48.37 333.02 L 48.37 329.95 L 71.65 329.95 L 71.65 333.02 Z M 48.37 339.15 L 48.37 336.06 L 71.65 336.06 L 71.65 339.15 Z M 48.37 345.18 L 48.37 342.18 L 71.65 342.18 L 71.65 345.18 Z" fill="#ffffff" stroke="none" pointer-events="none"/><path d="M 91.5 359 C 89.22 359 87 357.16 87 354.62 L 87 313 L 113.19 313 L 122 321.48 L 122 359 Z" fill="#4495d1" stroke="none" pointer-events="none"/><path d="M 113.1 321.46 L 113.1 315.13 L 119.5 321.46 Z M 92.53 334.02 L 92.53 330.95 L 116.49 330.95 L 116.49 334.02 Z M 92.53 340.15 L 92.53 337.06 L 116.49 337.06 L 116.49 340.15 Z M 92.53 346.18 L 92.53 343.18 L 116.49 343.18 L 116.49 346.18 Z" fill="#ffffff" stroke="none" pointer-events="none"/><path d="M 132.5 359 C 130.22 359 128 357.16 128 354.62 L 128 313 L 154.19 313 L 163 321.48 L 163 359 Z" fill="#4495d1" stroke="none" pointer-events="none"/><path d="M 154.1 321.46 L 154.1 315.13 L 160.5 321.46 Z M 133.53 334.02 L 133.53 330.95 L 157.49 330.95 L 157.49 334.02 Z M 133.53 340.15 L 133.53 337.06 L 157.49 337.06 L 157.49 340.15 Z M 133.53 346.18 L 133.53 343.18 L 157.49 343.18 L 157.49 346.18 Z" fill="#ffffff" stroke="none" pointer-events="none"/><path d="M 175.37 359 C 173.16 359 171 357.16 171 354.62 L 171 313 L 196.44 313 L 205 321.48 L 205 359 Z" fill="#4495d1" stroke="none" pointer-events="none"/><path d="M 196.35 321.46 L 196.35 315.13 L 202.57 321.46 Z M 176.37 334.02 L 176.37 330.95 L 199.65 330.95 L 199.65 334.02 Z M 176.37 340.15 L 176.37 337.06 L 199.65 337.06 L 199.65 340.15 Z M 176.37 346.18 L 176.37 343.18 L 199.65 343.18 L 199.65 346.18 Z" fill="#ffffff" stroke="none" pointer-events="none"/><path d="M 2 283 L 216 283" fill="none" stroke="#000000" stroke-width="2" stroke-miterlimit="10" pointer-events="none"/><path d="M 5 297 L 35 297" fill="none" stroke="#000000" stroke-width="2" stroke-miterlimit="10" transform="rotate(90,20,297)" pointer-events="none"/><path d="M 45 297 L 75 297" fill="none" stroke="#000000" stroke-width="2" stroke-miterlimit="10" transform="rotate(90,60,297)" pointer-events="none"/><path d="M 90 298 L 120 298" fill="none" stroke="#000000" stroke-width="2" stroke-miterlimit="10" transform="rotate(90,105,298)" pointer-events="none"/><path d="M 131 297 L 161 297" fill="none" stroke="#000000" stroke-width="2" stroke-miterlimit="10" transform="rotate(90,146,297)" pointer-events="none"/><path d="M 171 298 L 201 298" fill="none" stroke="#000000" stroke-width="2" stroke-miterlimit="10" transform="rotate(90,186,298)" pointer-events="none"/><path d="M 53 248 L 125 248" fill="none" stroke="#000000" stroke-width="2" stroke-miterlimit="10" transform="rotate(90,89,248)" pointer-events="none"/><path d="M 302.78 210 C 299.48 210 297 207.06 297 204.09 L 297 169.5 L 320.68 169.5 L 325.08 165.68 C 326.19 164.84 327.02 164 328.27 164 L 342.56 164 C 343.63 164 345 164.98 345 166.19 L 345 210 Z" fill="#4495d1" stroke="none" pointer-events="none"/><path d="M 240.37 359 C 238.16 359 236 357.16 236 354.62 L 236 313 L 261.44 313 L 270 321.48 L 270 359 Z" fill="#4495d1" stroke="none" pointer-events="none"/><path d="M 261.35 321.46 L 261.35 315.13 L 267.57 321.46 Z M 241.37 334.02 L 241.37 330.95 L 264.65 330.95 L 264.65 334.02 Z M 241.37 340.15 L 241.37 337.06 L 264.65 337.06 L 264.65 340.15 Z M 241.37 346.18 L 241.37 343.18 L 264.65 343.18 L 264.65 346.18 Z" fill="#ffffff" stroke="none" pointer-events="none"/><path d="M 281.37 359 C 279.16 359 277 357.16 277 354.62 L 277 313 L 302.44 313 L 311 321.48 L 311 359 Z" fill="#4495d1" stroke="none" pointer-events="none"/><path d="M 302.35 321.46 L 302.35 315.13 L 308.57 321.46 Z M 282.37 334.02 L 282.37 330.95 L 305.65 330.95 L 305.65 334.02 Z M 282.37 340.15 L 282.37 337.06 L 305.65 337.06 L 305.65 340.15 Z M 282.37 346.18 L 282.37 343.18 L 305.65 343.18 L 305.65 346.18 Z" fill="#ffffff" stroke="none" pointer-events="none"/><path d="M 325.5 360 C 323.22 360 321 358.16 321 355.62 L 321 314 L 347.19 314 L 356 322.48 L 356 360 Z" fill="#4495d1" stroke="none" pointer-events="none"/><path d="M 347.1 322.46 L 347.1 316.13 L 353.5 322.46 Z M 326.53 335.02 L 326.53 331.95 L 350.49 331.95 L 350.49 335.02 Z M 326.53 341.15 L 326.53 338.06 L 350.49 338.06 L 350.49 341.15 Z M 326.53 347.18 L 326.53 344.18 L 350.49 344.18 L 350.49 347.18 Z" fill="#ffffff" stroke="none" pointer-events="none"/><path d="M 366.5 360 C 364.22 360 362 358.16 362 355.62 L 362 314 L 388.19 314 L 397 322.48 L 397 360 Z" fill="#4495d1" stroke="none" pointer-events="none"/><path d="M 388.1 322.46 L 388.1 316.13 L 394.5 322.46 Z M 367.53 335.02 L 367.53 331.95 L 391.49 331.95 L 391.49 335.02 Z M 367.53 341.15 L 367.53 338.06 L 391.49 338.06 L 391.49 341.15 Z M 367.53 347.18 L 367.53 344.18 L 391.49 344.18 L 391.49 347.18 Z" fill="#ffffff" stroke="none" pointer-events="none"/><path d="M 409.37 360 C 407.16 360 405 358.16 405 355.62 L 405 314 L 430.44 314 L 439 322.48 L 439 360 Z" fill="#4495d1" stroke="none" pointer-events="none"/><path d="M 430.35 322.46 L 430.35 316.13 L 436.57 322.46 Z M 410.37 335.02 L 410.37 331.95 L 433.65 331.95 L 433.65 335.02 Z M 410.37 341.15 L 410.37 338.06 L 433.65 338.06 L 433.65 341.15 Z M 410.37 347.18 L 410.37 344.18 L 433.65 344.18 L 433.65 347.18 Z" fill="#ffffff" stroke="none" pointer-events="none"/><path d="M 236 284 L 450 284" fill="none" stroke="#000000" stroke-width="2" stroke-miterlimit="10" pointer-events="none"/><path d="M 239 298 L 269 298" fill="none" stroke="#000000" stroke-width="2" stroke-miterlimit="10" transform="rotate(90,254,298)" pointer-events="none"/><path d="M 279 298 L 309 298" fill="none" stroke="#000000" stroke-width="2" stroke-miterlimit="10" transform="rotate(90,294,298)" pointer-events="none"/><path d="M 324 299 L 354 299" fill="none" stroke="#000000" stroke-width="2" stroke-miterlimit="10" transform="rotate(90,339,299)" pointer-events="none"/><path d="M 365 298 L 395 298" fill="none" stroke="#000000" stroke-width="2" stroke-miterlimit="10" transform="rotate(90,380,298)" pointer-events="none"/><path d="M 405 299 L 435 299" fill="none" stroke="#000000" stroke-width="2" stroke-miterlimit="10" transform="rotate(90,420,299)" pointer-events="none"/><path d="M 287 249 L 359 249" fill="none" stroke="#000000" stroke-width="2" stroke-miterlimit="10" transform="rotate(90,323,249)" pointer-events="none"/><path d="M 42 97 L 352 97" fill="none" stroke="#000000" stroke-width="2" stroke-miterlimit="10" pointer-events="none"/><path d="M 61.5 128.5 L 122.5 128.5" fill="none" stroke="#000000" stroke-width="2" stroke-miterlimit="10" transform="rotate(90,92,128.5)" pointer-events="none"/><path d="M 289.5 128.5 L 350.5 128.5" fill="none" stroke="#000000" stroke-width="2" stroke-miterlimit="10" transform="rotate(90,320,128.5)" pointer-events="none"/><path d="M 173 74 L 217 74" fill="none" stroke="#000000" stroke-width="2" stroke-miterlimit="10" transform="rotate(90,195,74)" pointer-events="none"/><path d="M 195 96 L 195 96" fill="none" stroke="#000000" stroke-miterlimit="10" pointer-events="none"/><path d="M 195 96 L 195 96 L 195 96 L 195 96 Z" fill="#000000" stroke="#000000" stroke-miterlimit="10" pointer-events="none"/></g></svg>